HIERARCHY
ROOT root
{
	OFFSET	0	13.1	24.9
	CHANNELS 6  Xposition Yposition Zposition Xrotation Yrotation Zrotation
	JOINT spine_1
	{
		OFFSET	0	9.99999	0
		CHANNELS 3  Xrotation Yrotation Zrotation
		JOINT spine_2
		{
			OFFSET	0	112	-10
			CHANNELS 3  Xrotation Yrotation Zrotation
			JOINT spine_3
			{
				OFFSET	0	206.5	19.3
				CHANNELS 3  Xrotation Yrotation Zrotation
				JOINT spine_4
				{
					OFFSET	0	110.4	14.6
					CHANNELS 3  Xrotation Yrotation Zrotation
					JOINT neck_1
					{
						OFFSET	0	71.8	-50.3
						CHANNELS 3  Xrotation Yrotation Zrotation
						JOINT neck_2
						{
							OFFSET	0	86.2	-25.8
							CHANNELS 3  Xrotation Yrotation Zrotation
							JOINT head_ee
							{
								OFFSET	0	179.8	-8.7
								CHANNELS 3  Xrotation Yrotation Zrotation
								End Site
								{
									OFFSET	1	0	0
								}
							}
						}
					}
					JOINT left_clavicle
					{
						OFFSET	-43.2	22.4	-70.8
						CHANNELS 3  Xrotation Yrotation Zrotation
						JOINT left_shoulder
						{
							OFFSET	-93.9	-5.79999	48.7
							CHANNELS 3  Xrotation Yrotation Zrotation
							JOINT left_elbow
							{
								OFFSET	-291.4	-30.8	15.2
								CHANNELS 3  Xrotation Yrotation Zrotation
								JOINT left_lowarm_twist
								{
									OFFSET	-110.7	-3.89999	13.6
									CHANNELS 3  Xrotation Yrotation Zrotation
									JOINT left_hand
									{
										OFFSET	-110.7	-3.89999	13.6
										CHANNELS 3  Xrotation Yrotation Zrotation
										JOINT left_ee
										{
											OFFSET	-80.8	-5.10001	12.1
											CHANNELS 3  Xrotation Yrotation Zrotation
											End Site
											{
												OFFSET	1	0	0
											}
										}
									}
								}
							}
						}
					}
					JOINT right_clavicle
					{
						OFFSET	43.2	22.4	-70.8
						CHANNELS 3  Xrotation Yrotation Zrotation
						JOINT right_shoulder
						{
							OFFSET	93.9	-5.79999	48.7
							CHANNELS 3  Xrotation Yrotation Zrotation
							JOINT right_elbow
							{
								OFFSET	291.4	-30.8	15.2
								CHANNELS 3  Xrotation Yrotation Zrotation
								JOINT right_lowarm_twist
								{
									OFFSET	110.7	-3.89999	13.6
									CHANNELS 3  Xrotation Yrotation Zrotation
									JOINT right_hand
									{
										OFFSET	110.7	-3.89999	13.6
										CHANNELS 3  Xrotation Yrotation Zrotation
										JOINT right_ee
										{
											OFFSET	80.8	-5.10001	12.1
											CHANNELS 3  Xrotation Yrotation Zrotation
											End Site
											{
												OFFSET	1	0	0
											}
										}
									}
								}
							}
						}
					}
				}
			}
		}
	}
	JOINT left_hip
	{
		OFFSET	-82.8	-127.5	0.300001
		CHANNELS 3  Xrotation Yrotation Zrotation
		JOINT left_knee
		{
			OFFSET	-28.2	-396.7	2.2
			CHANNELS 3  Xrotation Yrotation Zrotation
			JOINT left_ankle
			{
				OFFSET	-11.7	-411.3	35.4
				CHANNELS 3  Xrotation Yrotation Zrotation
				JOINT left_toes
				{
					OFFSET	0	-60	-88.6
					CHANNELS 3  Xrotation Yrotation Zrotation
					JOINT left_foot_ee
					{
						OFFSET	-22.5	-16.5	-42.2
						CHANNELS 3  Xrotation Yrotation Zrotation
						End Site
						{
							OFFSET	1	0	0
						}
					}
				}
			}
		}
	}
	JOINT right_hip
	{
		OFFSET	82.8	-127.5	0.300001
		CHANNELS 3  Xrotation Yrotation Zrotation
		JOINT right_knee
		{
			OFFSET	28.2	-396.7	2.2
			CHANNELS 3  Xrotation Yrotation Zrotation
			JOINT right_ankle
			{
				OFFSET	11.7	-411.3	35.4
				CHANNELS 3  Xrotation Yrotation Zrotation
				JOINT right_toes
				{
					OFFSET	0	-60	-88.6
					CHANNELS 3  Xrotation Yrotation Zrotation
					JOINT right_foot_ee
					{
						OFFSET	22.5	-16.5	-42.2
						CHANNELS 3  Xrotation Yrotation Zrotation
						End Site
						{
							OFFSET	1	0	0
						}
					}
				}
			}
		}
	}
}
MOTION
Frames: 9
Frame Time: 0.02
2800.94 716.97 -1473.77 4.17147625396 75.618068212 -0.631507079921 0.444897 -0.453527 -2.84745 0.449366 -0.271494 -2.87051 0.464812 0.314789 -2.86609 0.453378 -0.141613 -2.87983 -9.06692 10.9814 8.98144 -8.89853 14.407 11.3457 -0.0 0.0 -0.0 6.24875 6.72034 12.1052 8.87006 -29.5183 61.6116 3.22744 -57.962 1.78793 -83.1145 -8.21544 5.22699 0.0595362 25.481 10.44 -0.0 0.0 -0.0 -2.35904 -2.44837 4.16787 -17.873 13.5685 -68.1169 0.483975 13.4822 -0.0572065 54.8493 1.33743 6.61301 -2.95173 -14.6078 12.4661 0.0 0.0 0.0 -15.1309 33.575 1.75473 -1.04485 0.0416101 0.154945 30.9077 -2.45485 -4.02823 11.7962 -0.0 -0.0 -0.0 0.0 -0.0 30.588 32.7948 -9.92644 -2.67045 -0.100704 -0.397417 -2.25068 2.83172 -0.33763 4.63711 -0.0 -0.0 0.0 0.0 0.0 
2709.46098661 725.819 -1504.92257131 9.25344937851 74.2991402289 -5.56940651171 -0.228013 -0.140842 -2.78556 -0.223697 0.0366255 -2.78887 -0.223371 0.633046 -2.71638 -0.233613 0.196274 -2.78221 -4.78549 8.73795 5.7385 -4.68342 11.7236 7.32734 -0.0 0.0 -0.0 5.33118 8.20596 10.426 0.937763 -25.3657 65.3064 2.14494 -46.7308 0.926748 -76.1261 -7.32868 5.31511 0.157768 24.7129 10.7313 -0.0 0.0 -0.0 -0.595455 -2.23763 0.858022 -12.6126 15.9157 -67.9378 0.422651 11.8253 -0.0437713 54.8958 1.34117 6.61765 -3.39683 -17.8962 13.4384 0.0 0.0 0.0 -15.0127 30.0226 -0.286953 -9.58725 0.274454 1.44403 27.4139 12.7554 -3.62749 14.5255 -0.0 -0.0 -0.0 0.0 -0.0 31.3815 33.4039 -16.3778 -13.0108 -0.313426 -1.96781 -1.83152 -5.60715 -0.26949 6.63949 -0.0 -0.0 0.0 0.0 0.0 
2710.17522662 725.819 -1506.94602299 8.58031881328 73.0422363844 -4.86802445859 -0.228013 -0.140842 -2.78556 -0.223697 0.0366255 -2.78887 -0.223371 0.633046 -2.71638 -0.233613 0.196274 -2.78221 -4.78549 8.73795 5.7385 -4.68342 11.7236 7.32734 -0.0 0.0 -0.0 5.33118 8.20596 10.426 0.937763 -25.3657 65.3064 2.14494 -46.7308 0.926748 -76.1261 -7.32868 5.31511 0.157768 24.7129 10.7313 -0.0 0.0 -0.0 -0.595455 -2.23763 0.858022 -12.6126 15.9157 -67.9378 0.422651 11.8253 -0.0437713 54.8958 1.34117 6.61765 -3.39683 -17.8962 13.4384 0.0 0.0 0.0 -15.0127 30.0226 -0.286953 -9.58725 0.274454 1.44403 27.4139 12.7554 -3.62749 14.5255 -0.0 -0.0 -0.0 0.0 -0.0 31.3815 33.4039 -16.3778 -13.0108 -0.313426 -1.96781 -1.83152 -5.60715 -0.26949 6.63949 -0.0 -0.0 0.0 0.0 0.0 
2710.80080039 725.819 -1508.60988063 8.09498770922 71.999443692 -4.35922035005 -0.228013 -0.140842 -2.78556 -0.223697 0.0366255 -2.78887 -0.223371 0.633046 -2.71638 -0.233613 0.196274 -2.78221 -4.78549 8.73795 5.7385 -4.68342 11.7236 7.32734 -0.0 0.0 -0.0 5.33118 8.20596 10.426 0.937763 -25.3657 65.3064 2.14494 -46.7308 0.926748 -76.1261 -7.32868 5.31511 0.157768 24.7129 10.7313 -0.0 0.0 -0.0 -0.595455 -2.23763 0.858022 -12.6126 15.9157 -67.9378 0.422651 11.8253 -0.0437713 54.8958 1.34117 6.61765 -3.39683 -17.8962 13.4384 0.0 0.0 0.0 -15.0127 30.0226 -0.286953 -9.58725 0.274454 1.44403 27.4139 12.7554 -3.62749 14.5255 -0.0 -0.0 -0.0 0.0 -0.0 31.3815 33.4039 -16.3778 -13.0108 -0.313426 -1.96781 -1.83152 -5.60715 -0.26949 6.63949 -0.0 -0.0 0.0 0.0 0.0 
2711.54188773 725.819 -1510.46972904 7.61267362613 70.8235417531 -3.85038737218 -0.228013 -0.140842 -2.78556 -0.223697 0.0366255 -2.78887 -0.223371 0.633046 -2.71638 -0.233613 0.196274 -2.78221 -4.78549 8.73795 5.7385 -4.68342 11.7236 7.32734 -0.0 0.0 -0.0 5.33118 8.20596 10.426 0.937763 -25.3657 65.3064 2.14494 -46.7308 0.926748 -76.1261 -7.32868 5.31511 0.157768 24.7129 10.7313 -0.0 0.0 -0.0 -0.595455 -2.23763 0.858022 -12.6126 15.9157 -67.9378 0.422651 11.8253 -0.0437713 54.8958 1.34117 6.61765 -3.39683 -17.8962 13.4384 0.0 0.0 0.0 -15.0127 30.0226 -0.286953 -9.58725 0.274454 1.44403 27.4139 12.7554 -3.62749 14.5255 -0.0 -0.0 -0.0 0.0 -0.0 31.3815 33.4039 -16.3778 -13.0108 -0.313426 -1.96781 -1.83152 -5.60715 -0.26949 6.63949 -0.0 -0.0 0.0 0.0 0.0 
2694.84628462 733.147 -1518.99621693 8.73751010018 68.9978780034 -4.25648530296 -0.320187 -0.199087 -2.68767 -0.316169 -0.027723 -2.69489 -0.312713 0.554083 -2.6375 -0.322396 0.130743 -2.69186 -3.8221 8.62232 6.34346 -3.69752 10.8781 7.86958 -0.0 0.0 -0.0 5.16271 9.12069 10.1268 -1.31 -24.0744 65.8691 1.817 -41.986 0.697275 -75.0043 -7.18542 5.31906 0.156356 23.7686 10.3871 -0.0 0.0 -0.0 -0.177617 -2.01888 0.0956061 -10.2856 16.405 -68.069 0.444892 12.4287 -0.0484438 55.2388 1.36886 6.65178 -3.70589 -20.6639 13.713 0.0 0.0 0.0 -13.7841 29.2692 -1.12294 -10.9361 0.293545 1.65011 26.0678 19.5123 -3.54334 13.3301 -0.0 -0.0 -0.0 0.0 -0.0 31.523 33.1377 -18.3029 -15.4929 -0.322083 -2.34851 -1.3284 -9.44022 -0.195025 7.91352 -0.0 -0.0 0.0 0.0 0.0 
2678.88935923 734.565 -1521.57515441 9.60384452376 65.7982454302 -5.0406901868 -0.449551 -0.126623 -2.68927 -0.445529 0.0446954 -2.69188 -0.445458 0.63029 -2.61748 -0.454958 0.209154 -2.68412 -5.39527 9.24516 6.11158 -5.2863 12.486 7.83516 -0.0 0.0 -0.0 5.05276 12.244 9.93149 -3.36616 -23.2631 66.8838 1.6102 -38.5746 0.563518 -72.1249 -6.81743 5.31627 0.753294 21.8047 13.2446 -0.0 0.0 -0.0 1.15389 0.473038 -2.17622 -8.95121 16.5501 -66.7922 0.403075 11.292 -0.0398488 56.5888 1.47982 6.78448 -3.72511 -20.3167 14.0408 0.0 0.0 0.0 -10.6284 28.3785 -3.30741 -19.4913 0.301344 2.96152 26.8528 23.0501 -3.69533 14.634 -0.0 -0.0 -0.0 0.0 -0.0 30.5999 33.1747 -18.975 -17.9998 -0.314083 -2.73303 3.30673 -9.02361 0.479888 9.91011 -0.0 -0.0 0.0 0.0 0.0 
2679.54612027 734.565 -1523.21914221 9.32569088526 65.0349487585 -4.73481751135 -0.449551 -0.126623 -2.68927 -0.445529 0.0446954 -2.69188 -0.445458 0.63029 -2.61748 -0.454958 0.209154 -2.68412 -5.39527 9.24516 6.11158 -5.2863 12.486 7.83516 -0.0 0.0 -0.0 5.05276 12.244 9.93149 -3.36616 -23.2631 66.8838 1.6102 -38.5746 0.563518 -72.1249 -6.81743 5.31627 0.753294 21.8047 13.2446 -0.0 0.0 -0.0 1.15389 0.473038 -2.17622 -8.95121 16.5501 -66.7922 0.403075 11.292 -0.0398488 56.5888 1.47982 6.78448 -3.72511 -20.3167 14.0408 0.0 0.0 0.0 -10.6284 28.3785 -3.30741 -19.4913 0.301344 2.96152 26.8528 23.0501 -3.69533 14.634 -0.0 -0.0 -0.0 0.0 -0.0 30.5999 33.1747 -18.975 -17.9998 -0.314083 -2.73303 3.30673 -9.02361 0.479888 9.91011 -0.0 -0.0 0.0 0.0 0.0 
2666.69612367 737.478 -1531.2120141 10.5462623407 62.9367351521 -5.37959290856 -0.723857 0.0150798 -2.68402 -0.719868 0.185778 -2.67763 -0.726369 0.777619 -2.56902 -0.735396 0.362282 -2.65951 -5.35396 9.49801 5.5271 -5.25853 13.3842 7.28653 -0.0 0.0 -0.0 5.25616 12.5345 10.275 -4.6637 -22.1716 67.2766 1.27325 -32.2395 0.367994 -70.1014 -6.55897 5.30316 0.449532 21.7527 11.4041 -0.0 0.0 -0.0 1.12161 2.45793 -1.91471 -6.11326 17.4664 -68.1956 0.570658 15.7851 -0.0791103 55.6535 1.40261 6.69282 -3.89768 -22.5877 13.6929 0.0 0.0 0.0 -9.32845 25.8492 -6.04198 -21.0165 0.282171 3.19475 28.1851 26.4484 -3.92937 11.361 -0.0 -0.0 -0.0 0.0 -0.0 29.5176 33.1605 -19.7888 -18.9288 -0.306847 -2.87538 3.69365 -12.0472 0.536602 8.46763 -0.0 -0.0 0.0 0.0 0.0 
